<svg xmlns="http://www.w3.org/2000/svg" viewBox="0 0 64 96" shape-rendering="crispEdges">
  <rect width="64" height="96" fill="none"/>
  <rect x="29" y="6" width="10" height="4" fill="#26180f"/>
  <rect x="24" y="10" width="22" height="6" fill="#352116"/>
  <rect x="20" y="16" width="30" height="8" fill="#3f291d"/>
  <rect x="18" y="24" width="32" height="10" fill="#4c3325"/>
  <rect x="18" y="34" width="9" height="8" fill="#4c3325"/>
  <rect x="37" y="34" width="9" height="8" fill="#4c3325"/>
  <rect x="21" y="26" width="10" height="8" fill="#35dffd"/>
  <rect x="33" y="26" width="10" height="8" fill="#35dffd"/>
  <rect x="21" y="34" width="22" height="3" fill="#121417"/>
  <rect x="24" y="37" width="16" height="8" fill="#edbb98"/>
  <rect x="17" y="41" width="10" height="20" fill="#2d3946"/>
  <rect x="37" y="41" width="10" height="20" fill="#2d3946"/>
  <rect x="14" y="43" width="8" height="29" fill="#485769"/>
  <rect x="14" y="43" width="8" height="6" fill="#27d2f8"/>
  <rect x="22" y="45" width="20" height="36" fill="#917350"/>
  <rect x="19" y="48" width="5" height="40" fill="#8a6c49"/>
  <rect x="40" y="48" width="5" height="40" fill="#8a6c49"/>
  <rect x="25" y="50" width="14" height="24" fill="#c0b5a4"/>
  <rect x="24" y="74" width="16" height="8" fill="#b0a491"/>
  <rect x="16" y="82" width="9" height="10" fill="#7f6548"/>
  <rect x="40" y="80" width="9" height="10" fill="#7f6548"/>
  <rect x="19" y="82" width="6" height="10" fill="#2f3035"/>
  <rect x="38" y="80" width="6" height="13" fill="#2f3035"/>
  <rect x="15" y="91" width="11" height="4" fill="#57402b"/>
  <rect x="40" y="89" width="10" height="4" fill="#57402b"/>
  <rect x="11" y="44" width="3" height="24" fill="#27323c"/>
  <rect x="9" y="52" width="5" height="19" fill="#1f2830"/>
  <rect x="8" y="50" width="6" height="5" fill="#4b5966"/>
  <rect x="10" y="52" width="2" height="3" fill="#27d2f8"/>
  <rect x="45" y="43" width="4" height="39" fill="#6f573d"/>
  <rect x="47" y="44" width="3" height="36" fill="#8d7250"/>
</svg>
